<svg width="80" height="80" viewBox="0 0 80 80" fill="none" xmlns="http://www.w3.org/2000/svg">
<rect width="80" height="80" rx="12" fill="black"/>
<path d="M21.1284 33.3185V29.9094H31.0939V33.3185H21.1284ZM27.7557 29.9094H31.683V51.7279H27.7557V29.9094ZM13.0283 51.7279V27.6366H16.9556V51.7279H13.0283ZM21.3738 19.9092H31.683V23.5456H21.3738C20.5556 23.5153 19.8029 23.6214 19.1156 23.8638C18.4611 24.1062 17.9374 24.5305 17.5447 25.1365C17.152 25.7123 16.9556 26.5457 16.9556 27.6366H13.0283C13.0283 25.8184 13.3719 24.3487 14.0592 23.2274C14.7792 22.0759 15.761 21.2425 17.0047 20.7274C18.2811 20.1819 19.7374 19.9092 21.3738 19.9092ZM8.65918 29.9094H23.092V33.3185H8.65918V29.9094Z" fill="white"/>
<path d="M44.6231 48.1369C42.8886 48.1369 41.2358 47.7582 39.6649 47.0006C38.1267 46.2127 36.8667 45.0914 35.8849 43.6369C34.9358 42.1823 34.4612 40.4398 34.4612 38.4095C34.4612 36.3792 34.9358 34.6367 35.8849 33.1821C36.834 31.6973 38.0776 30.5609 39.6158 29.773C41.154 28.9548 42.8231 28.5457 44.6231 28.5457C45.1795 28.5457 45.7031 28.5911 46.1941 28.6821C46.7177 28.7427 47.2086 28.8487 47.6668 29.0002H57.6323V32.9094C56.225 32.9094 54.8178 32.667 53.4105 32.1821C52.0359 31.6973 50.8577 31.1973 49.8759 30.6821L49.6795 30.5003C50.825 31.076 51.7577 31.7579 52.4777 32.5458C53.2305 33.3337 53.7868 34.2276 54.1468 35.2276C54.5396 36.1973 54.7359 37.258 54.7359 38.4095C54.7359 40.4398 54.2614 42.1823 53.3123 43.6369C52.3959 45.0914 51.1686 46.2127 49.6304 47.0006C48.0922 47.7582 46.4231 48.1369 44.6231 48.1369ZM51.8396 60.819V59.819C51.8396 58.2129 51.3814 57.0462 50.465 56.3189C49.5814 55.5916 48.2395 55.228 46.4395 55.228H41.5304C40.4504 55.228 39.5013 55.1371 38.6831 54.9552C37.8976 54.8037 37.2431 54.5613 36.7194 54.228C36.1958 53.8946 35.8031 53.4855 35.5412 53.0007C35.2794 52.5158 35.1485 51.9703 35.1485 51.3643C35.1485 50.2127 35.5249 49.3491 36.2776 48.7733C37.0303 48.1673 37.9631 47.7885 39.0758 47.6369C40.1886 47.4854 41.2522 47.4854 42.2668 47.6369L44.6231 48.1369C42.8558 48.2279 41.4813 48.3945 40.4995 48.637C39.5504 48.8794 39.0758 49.3945 39.0758 50.1824C39.0758 50.637 39.2558 51.0158 39.6158 51.3188C40.0086 51.5916 40.5813 51.7279 41.334 51.7279H46.4395C48.1413 51.7279 49.6959 51.94 51.1032 52.3643C52.5105 52.8188 53.6396 53.5613 54.4905 54.5916C55.3414 55.6522 55.7669 57.0916 55.7669 58.9099V60.819H51.8396ZM44.6231 44.7278C45.7031 44.7278 46.7013 44.4854 47.6177 44.0005C48.5668 43.5157 49.3359 42.8035 49.925 41.8641C50.5141 40.9247 50.8086 39.7732 50.8086 38.4095C50.8086 37.0458 50.5141 35.8943 49.925 34.9549C49.3686 33.9852 48.6159 33.2579 47.6668 32.773C46.7177 32.2579 45.7031 32.0003 44.6231 32.0003C43.5431 32.0003 42.5286 32.2579 41.5795 32.773C40.6304 33.2579 39.8613 33.97 39.2722 34.9094C38.6831 35.8489 38.3885 37.0155 38.3885 38.4095C38.3885 39.7732 38.6831 40.9247 39.2722 41.8641C39.8613 42.8035 40.6304 43.5157 41.5795 44.0005C42.5286 44.4854 43.5431 44.7278 44.6231 44.7278Z" fill="white"/>
<path d="M60.2875 29.0002H64.2148V51.7279H60.2875V29.0002ZM72.0694 32.4094C70.4003 32.4094 68.993 32.8033 67.8475 33.5912C66.7348 34.3488 65.8511 35.2882 65.1966 36.4095C64.5748 37.5004 64.1657 38.561 63.9693 39.5913L63.9202 36.9549C63.9202 36.6822 63.9857 36.2276 64.1166 35.5913C64.2475 34.9549 64.4929 34.2428 64.8529 33.4549C65.213 32.6367 65.6875 31.8639 66.2766 31.1367C66.8984 30.3791 67.6839 29.7578 68.633 29.273C69.5821 28.7881 70.7275 28.5457 72.0694 28.5457V32.4094Z" fill="white"/>
</svg>
