<svg width="51" height="33" viewBox="0 0 51 33" fill="none" xmlns="http://www.w3.org/2000/svg">
<path d="M9.97534 10.7275V8.00014H17.9478V10.7275H9.97534ZM15.2772 8.00014H18.419V25.455H15.2772V8.00014ZM3.4953 25.455V6.18193H6.63714V25.455H3.4953ZM10.1717 0H18.419V2.90914H10.1717C9.51716 2.8849 8.91497 2.96975 8.36515 3.16369C7.84151 3.35764 7.4226 3.69703 7.10841 4.18189C6.79423 4.64251 6.63714 5.30918 6.63714 6.18193H3.4953C3.4953 4.72736 3.77021 3.55158 4.32003 2.65459C4.89603 1.73336 5.6815 1.06669 6.67641 0.654557C7.69751 0.218186 8.86261 0 10.1717 0ZM0 8.00014H11.5463V10.7275H0V8.00014Z" fill="white" fill-opacity="0.95"/>
<path d="M28.7712 22.5822C27.3835 22.5822 26.0613 22.2792 24.8046 21.6731C23.574 21.0428 22.566 20.1458 21.7806 18.9822C21.0213 17.8185 20.6417 16.4245 20.6417 14.8003C20.6417 13.176 21.0213 11.782 21.7806 10.6184C22.5398 9.43047 23.5348 8.52136 24.7653 7.89105C25.9959 7.23649 27.3312 6.90921 28.7712 6.90921C29.2163 6.90921 29.6352 6.94558 30.0279 7.0183C30.4468 7.06679 30.8395 7.15164 31.2061 7.27286H39.1785V10.4002C38.0527 10.4002 36.9269 10.2062 35.801 9.81835C34.7014 9.43047 33.7588 9.03046 32.9734 8.61833L32.8163 8.47288C33.7327 8.93349 34.4788 9.47895 35.0548 10.1093C35.657 10.7396 36.1021 11.4547 36.3901 12.2548C36.7043 13.0305 36.8614 13.879 36.8614 14.8003C36.8614 16.4245 36.4818 17.8185 35.7225 18.9822C34.9894 20.1458 34.0076 21.0428 32.777 21.6731C31.5465 22.2792 30.2112 22.5822 28.7712 22.5822ZM34.5443 32.7278V31.9278C34.5443 30.643 34.1777 29.7096 33.4447 29.1278C32.7377 28.546 31.6643 28.255 30.2243 28.255H26.297C25.433 28.255 24.6737 28.1823 24.0191 28.0369C23.3908 27.9156 22.8671 27.7217 22.4482 27.455C22.0293 27.1884 21.7151 26.8611 21.5057 26.4732C21.2962 26.0853 21.1915 25.6489 21.1915 25.1641C21.1915 24.2428 21.4926 23.5519 22.0947 23.0913C22.6969 22.6065 23.4431 22.3034 24.3333 22.1822C25.2235 22.061 26.0744 22.061 26.8861 22.1822L28.7712 22.5822C27.3573 22.6549 26.2577 22.7883 25.4722 22.9822C24.713 23.1762 24.3333 23.5883 24.3333 24.2186C24.3333 24.5822 24.4773 24.8853 24.7653 25.1277C25.0795 25.3459 25.5377 25.455 26.1399 25.455H30.2243C31.5857 25.455 32.8294 25.6247 33.9552 25.9641C35.081 26.3277 35.9843 26.9217 36.665 27.7459C37.3458 28.5944 37.6861 29.746 37.6861 31.2005V32.7278H34.5443ZM28.7712 19.8549C29.6352 19.8549 30.4337 19.661 31.1668 19.2731C31.9261 18.8852 32.5414 18.3155 33.0127 17.5639C33.4839 16.8124 33.7196 15.8912 33.7196 14.8003C33.7196 13.7093 33.4839 12.7881 33.0127 12.0366C32.5676 11.2608 31.9654 10.679 31.2061 10.2911C30.4468 9.87896 29.6352 9.6729 28.7712 9.6729C27.9072 9.6729 27.0955 9.87896 26.3362 10.2911C25.577 10.679 24.9617 11.2487 24.4904 12.0002C24.0191 12.7517 23.7835 13.6851 23.7835 14.8003C23.7835 15.8912 24.0191 16.8124 24.4904 17.5639C24.9617 18.3155 25.577 18.8852 26.3362 19.2731C27.0955 19.661 27.9072 19.8549 28.7712 19.8549Z" fill="white" fill-opacity="0.95"/>
<path d="M41.3026 7.27286H44.4445V25.455H41.3026V7.27286ZM50.7282 10.0002C49.3929 10.0002 48.267 10.3153 47.3507 10.9456C46.4605 11.5517 45.7536 12.3032 45.2299 13.2002C44.7325 14.073 44.4052 14.9215 44.2481 15.7457L44.2088 13.6366C44.2088 13.4184 44.2612 13.0548 44.3659 12.5457C44.4707 12.0366 44.667 11.4669 44.955 10.8366C45.243 10.182 45.6227 9.5638 46.0939 8.98198C46.5914 8.37591 47.2198 7.87893 47.979 7.49104C48.7383 7.10315 49.6547 6.90921 50.7282 6.90921V10.0002Z" fill="white" fill-opacity="0.95"/>
</svg>
